<svg width="200" height="200" viewBox="0 0 200 200" xmlns="http://www.w3.org/2000/svg">
  <!-- Outer square with rounded corners -->
  <rect x="10" y="10" width="180" height="180" rx="20" fill="white" stroke="#000" stroke-width="2" />
  
  <!-- Left half gradient background -->
  <rect x="20" y="20" width="80" height="160" rx="10" fill="url(#greenGradient)" opacity="0.7" />
  
  <!-- Right half gradient background -->
  <rect x="100" y="20" width="80" height="160" rx="10" fill="url(#blueGradient)" opacity="0.7" />
  
  <!-- Grid lines -->
  <line x1="20" y1="100" x2="180" y2="100" stroke="#000" stroke-width="2" stroke-dasharray="5,5" />
  <line x1="100" y1="20" x2="100" y2="180" stroke="#000" stroke-width="2" stroke-dasharray="5,5" />
  
  <!-- Circle element in top-left -->
  <circle cx="40" cy="40" r="15" fill="url(#circleGradient)" stroke="#000" stroke-width="2" />
  
  <!-- Letter A -->
  <path d="M100 40 L60 160 L80 160 L90 130 L110 130 L120 160 L140 160 L100 40Z" fill="white" stroke="#000" stroke-width="2" />
  <path d="M95 110 L105 110 L100 90 L95 110Z" fill="white" stroke="#000" stroke-width="2" />
  
  <!-- Tech circuit lines on the A -->
  <path d="M100 60 L115 70 L125 90" fill="none" stroke="#666" stroke-width="2" />
  <circle cx="125" cy="90" r="3" fill="#666" />
  
  <!-- Gear icons in the bottom right -->
  <circle cx="140" cy="140" r="10" fill="none" stroke="#666" stroke-width="1" />
  <circle cx="140" cy="140" r="5" fill="none" stroke="#666" stroke-width="1" />
  <circle cx="150" cy="130" r="5" fill="none" stroke="#666" stroke-width="1" />
  <circle cx="130" cy="150" r="5" fill="none" stroke="#666" stroke-width="1" />
  
  <!-- Definitions for gradients -->
  <defs>
    <linearGradient id="greenGradient" x1="0%" y1="0%" x2="100%" y2="100%">
      <stop offset="0%" stop-color="#c2ffcb" />
      <stop offset="100%" stop-color="#8ae6b0" />
    </linearGradient>
    
    <linearGradient id="blueGradient" x1="0%" y1="0%" x2="100%" y2="100%">
      <stop offset="0%" stop-color="#a7d7ff" />
      <stop offset="100%" stop-color="#6ea5e0" />
    </linearGradient>
    
    <linearGradient id="circleGradient" x1="0%" y1="0%" x2="100%" y2="100%">
      <stop offset="0%" stop-color="#c2ffcb" />
      <stop offset="100%" stop-color="#a7d7ff" />
    </linearGradient>
  </defs>
</svg>
